<?xml version="1.0" standalone="no"?>
<!DOCTYPE svg PUBLIC "-//W3C//DTD SVG 20010904//EN"
 "http://www.w3.org/TR/2001/REC-SVG-20010904/DTD/svg10.dtd">
<svg version="1.0" xmlns="http://www.w3.org/2000/svg"
 width="512.000000pt" height="512.000000pt" viewBox="0 0 512.000000 512.000000"
 preserveAspectRatio="xMidYMid meet">

<g transform="translate(0.000000,512.000000) scale(0.100000,-0.100000)"
fill="#000000" stroke="none">
<path d="M681 4784 c-169 -45 -301 -180 -346 -351 -22 -85 -22 -1261 0 -1346
45 -173 178 -307 350 -352 88 -23 1262 -23 1350 0 172 45 305 179 350 352 22
85 22 1261 0 1346 -45 173 -178 307 -350 352 -85 22 -1271 21 -1354 -1z m1333
-338 c69 -52 67 -29 64 -700 -3 -593 -3 -605 -24 -632 -11 -15 -33 -37 -48
-48 -27 -21 -39 -21 -632 -24 -671 -3 -648 -5 -700 64 l-29 37 -3 591 c-2 325
0 605 3 623 7 40 49 91 90 109 24 11 147 13 636 11 l606 -2 37 -29z"/>
<path d="M3081 4784 c-169 -45 -301 -180 -346 -351 -22 -85 -22 -1261 0 -1346
45 -173 178 -307 350 -352 88 -23 1262 -23 1350 0 172 45 305 179 350 352 22
85 22 1261 0 1346 -45 173 -178 307 -350 352 -85 22 -1271 21 -1354 -1z m1333
-338 c69 -52 67 -29 64 -700 -3 -593 -3 -605 -24 -632 -11 -15 -33 -37 -48
-48 -27 -21 -39 -21 -632 -24 -671 -3 -648 -5 -700 64 l-29 37 -3 591 c-2 325
0 605 3 623 7 40 49 91 90 109 24 11 147 13 636 11 l606 -2 37 -29z"/>
<path d="M681 2384 c-169 -45 -301 -180 -346 -351 -22 -85 -22 -1261 0 -1346
45 -173 178 -307 350 -352 88 -23 1262 -23 1350 0 172 45 305 179 350 352 22
85 22 1261 0 1346 -45 173 -178 307 -350 352 -85 22 -1271 21 -1354 -1z m1333
-338 c69 -52 67 -29 64 -700 -3 -593 -3 -605 -24 -632 -11 -15 -33 -37 -48
-48 -27 -21 -39 -21 -632 -24 -671 -3 -648 -5 -700 64 l-29 37 -3 591 c-2 325
0 605 3 623 7 40 49 91 90 109 24 11 147 13 636 11 l606 -2 37 -29z"/>
<path d="M3081 2384 c-169 -45 -301 -180 -346 -351 -22 -85 -22 -1261 0 -1346
45 -173 178 -307 350 -352 88 -23 1262 -23 1350 0 172 45 305 179 350 352 22
85 22 1261 0 1346 -45 173 -178 307 -350 352 -85 22 -1271 21 -1354 -1z m1333
-338 c69 -52 67 -29 64 -700 -3 -593 -3 -605 -24 -632 -11 -15 -33 -37 -48
-48 -27 -21 -39 -21 -632 -24 -671 -3 -648 -5 -700 64 l-29 37 -3 591 c-2 325
0 605 3 623 7 40 49 91 90 109 24 11 147 13 636 11 l606 -2 37 -29z"/>
</g>
</svg>
